<svg width="2110" height="686" xmlns="http://www.w3.org/2000/svg" xmlns:xlink="http://www.w3.org/1999/xlink" xml:space="preserve" overflow="hidden"><g transform="translate(-1220 -99)"><text fill="#FFC000" font-family="Montserrat,Montserrat_MSFontService,sans-serif" font-weight="700" font-size="275" transform="matrix(1 0 0 1 1385.82 552)">Differentials</text><path d="M1853.76 210.882 1853.76 271.394 1886.5 271.394C1898.57 271.394 1907.74 268.749 1914.03 263.458 1920.31 258.167 1923.45 250.727 1923.45 241.138 1923.45 231.383 1920.31 223.902 1914.03 218.694 1907.74 213.486 1898.57 210.882 1886.5 210.882ZM1493.66 209.394C1483.41 209.394 1474.15 211.75 1465.88 216.462 1457.61 221.174 1451.13 227.746 1446.41 236.178 1441.7 244.61 1439.35 254.199 1439.35 264.946 1439.35 275.693 1441.7 285.282 1446.41 293.714 1451.13 302.146 1457.61 308.718 1465.88 313.43 1474.15 318.142 1483.41 320.498 1493.66 320.498 1503.91 320.498 1513.17 318.142 1521.43 313.43 1529.7 308.718 1536.19 302.146 1540.9 293.714 1545.61 285.282 1547.97 275.693 1547.97 264.946 1547.97 254.199 1545.61 244.61 1540.9 236.178 1536.19 227.746 1529.7 221.174 1521.43 216.462 1513.17 211.75 1503.91 209.394 1493.66 209.394ZM1813.59 178.146 1888.73 178.146C1904.11 178.146 1917.46 180.709 1928.78 185.834 1940.11 190.959 1948.83 198.234 1954.95 207.658 1961.06 217.082 1964.12 228.242 1964.12 241.138 1964.12 254.034 1961.02 265.153 1954.82 274.494 1948.62 283.835 1939.82 290.986 1928.41 295.946L1967.35 351.746 1924.19 351.746 1890.71 303.386 1888.73 303.386 1853.76 303.386 1853.76 351.746 1813.59 351.746ZM1617.1 178.146 1657.27 178.146 1657.27 273.874C1657.27 304.957 1670.17 320.498 1695.96 320.498 1708.53 320.498 1718.12 316.737 1724.73 309.214 1731.34 301.691 1734.65 289.911 1734.65 273.874L1734.65 178.146 1774.33 178.146 1774.33 275.362C1774.33 300.823 1767.43 320.415 1753.62 334.138 1739.82 347.861 1720.51 354.722 1695.71 354.722 1670.91 354.722 1651.61 347.861 1637.81 334.138 1624 320.415 1617.1 300.823 1617.1 275.362ZM1493.66 175.17C1511.68 175.17 1527.88 179.055 1542.27 186.826 1556.65 194.597 1567.97 205.302 1576.24 218.942 1584.51 232.582 1588.64 247.917 1588.64 264.946 1588.64 281.975 1584.51 297.31 1576.24 310.95 1567.97 324.59 1556.65 335.295 1542.27 343.066 1527.88 350.837 1511.68 354.722 1493.66 354.722 1475.64 354.722 1459.39 350.837 1444.93 343.066 1430.46 335.295 1419.13 324.59 1410.95 310.95 1402.77 297.31 1398.67 281.975 1398.67 264.946 1398.67 247.917 1402.77 232.582 1410.95 218.942 1419.13 205.302 1430.46 194.597 1444.93 186.826 1459.39 179.055 1475.64 175.17 1493.66 175.17Z" stroke="#A2A2A2" stroke-width="4" stroke-linejoin="round" stroke-miterlimit="10" fill="none" fill-rule="evenodd"/><text fill="#000000" fill-opacity="0" font-family="Arial,Arial_MSFontService,sans-serif" font-size="179.552" x="1398.67" y="332.278">OUR</text></g></svg>