<svg width="2047" height="686" xmlns="http://www.w3.org/2000/svg" xmlns:xlink="http://www.w3.org/1999/xlink" xml:space="preserve" overflow="hidden"><g transform="translate(-1220 -99)"><text fill="#FFC000" font-family="Montserrat,Montserrat_MSFontService,sans-serif" font-weight="700" font-size="275" transform="matrix(1 0 0 1 1385.82 552)">Diferenciais</text><path d="M2221.13 209.394C2210.88 209.394 2201.62 211.75 2193.35 216.462 2185.09 221.174 2178.6 227.746 2173.89 236.178 2169.17 244.61 2166.82 254.199 2166.82 264.946 2166.82 275.693 2169.17 285.282 2173.89 293.714 2178.6 302.146 2185.09 308.718 2193.35 313.43 2201.62 318.142 2210.88 320.498 2221.13 320.498 2231.38 320.498 2240.64 318.142 2248.91 313.43 2257.17 308.718 2263.66 302.146 2268.37 293.714 2273.09 285.282 2275.44 275.693 2275.44 264.946 2275.44 254.199 2273.09 244.61 2268.37 236.178 2263.66 227.746 2257.17 221.174 2248.91 216.462 2240.64 211.75 2231.38 209.394 2221.13 209.394ZM1696.13 209.394C1685.88 209.394 1676.62 211.75 1668.35 216.462 1660.09 221.174 1653.6 227.746 1648.89 236.178 1644.17 244.61 1641.82 254.199 1641.82 264.946 1641.82 275.693 1644.17 285.282 1648.89 293.714 1653.6 302.146 1660.09 308.718 1668.35 313.43 1676.62 318.142 1685.88 320.498 1696.13 320.498 1706.38 320.498 1715.64 318.142 1723.91 313.43 1732.17 308.718 1738.66 302.146 1743.37 293.714 1748.09 285.282 1750.44 275.693 1750.44 264.946 1750.44 254.199 1748.09 244.61 1743.37 236.178 1738.66 227.746 1732.17 221.174 1723.91 216.462 1715.64 211.75 1706.38 209.394 1696.13 209.394ZM1412.06 178.146 1445.29 178.146 1531.59 283.546 1531.59 178.146 1571.27 178.146 1571.27 351.746 1538.29 351.746 1451.74 246.346 1451.74 351.746 1412.06 351.746ZM2409.05 175.17C2420.13 175.17 2430.96 176.493 2441.54 179.138 2452.12 181.783 2461.38 185.586 2469.31 190.546L2456.91 221.05C2440.88 211.957 2424.84 207.41 2408.8 207.41 2397.56 207.41 2389.25 209.229 2383.88 212.866 2378.5 216.503 2375.82 221.298 2375.82 227.25 2375.82 233.202 2378.92 237.625 2385.12 240.518 2391.32 243.411 2400.78 246.263 2413.51 249.074 2426.74 252.215 2437.57 255.357 2446 258.498 2454.43 261.639 2461.67 266.599 2467.7 273.378 2473.74 280.157 2476.75 289.333 2476.75 300.906 2476.75 310.826 2473.98 319.878 2468.45 328.062 2462.91 336.246 2454.6 342.735 2443.52 347.53 2432.44 352.325 2418.97 354.722 2403.1 354.722 2389.38 354.722 2376.11 352.862 2363.29 349.142 2350.48 345.422 2340.19 340.586 2332.42 334.634L2346.06 304.378C2353.5 309.834 2362.34 314.215 2372.59 317.522 2382.84 320.829 2393.1 322.482 2403.35 322.482 2414.75 322.482 2423.19 320.787 2428.64 317.398 2434.1 314.009 2436.83 309.503 2436.83 303.882 2436.83 299.749 2435.21 296.318 2431.99 293.59 2428.77 290.862 2424.63 288.671 2419.59 287.018 2414.55 285.365 2407.73 283.546 2399.13 281.562 2385.9 278.421 2375.07 275.279 2366.64 272.138 2358.21 268.997 2350.98 263.954 2344.94 257.01 2338.91 250.066 2335.89 240.807 2335.89 229.234 2335.89 219.149 2338.62 210.014 2344.07 201.83 2349.53 193.646 2357.76 187.157 2368.75 182.362 2379.74 177.567 2393.18 175.17 2409.05 175.17ZM2221.13 175.17C2239.15 175.17 2255.35 179.055 2269.74 186.826 2284.12 194.597 2295.45 205.302 2303.71 218.942 2311.98 232.582 2316.11 247.917 2316.11 264.946 2316.11 281.975 2311.98 297.31 2303.71 310.95 2295.45 324.59 2284.12 335.295 2269.74 343.066 2255.35 350.837 2239.15 354.722 2221.13 354.722 2203.11 354.722 2186.86 350.837 2172.4 343.066 2157.93 335.295 2146.61 324.59 2138.42 310.95 2130.24 297.31 2126.15 281.975 2126.15 264.946 2126.15 247.917 2130.24 232.582 2138.42 218.942 2146.61 205.302 2157.93 194.597 2172.4 186.826 2186.86 179.055 2203.11 175.17 2221.13 175.17ZM2042.05 175.17C2053.13 175.17 2063.96 176.493 2074.54 179.138 2085.12 181.783 2094.38 185.586 2102.31 190.546L2089.91 221.05C2073.88 211.957 2057.84 207.41 2041.8 207.41 2030.56 207.41 2022.25 209.229 2016.88 212.866 2011.5 216.503 2008.82 221.298 2008.82 227.25 2008.82 233.202 2011.92 237.625 2018.12 240.518 2024.32 243.411 2033.78 246.263 2046.51 249.074 2059.74 252.215 2070.57 255.357 2079 258.498 2087.43 261.639 2094.67 266.599 2100.7 273.378 2106.74 280.157 2109.75 289.333 2109.75 300.906 2109.75 310.826 2106.98 319.878 2101.45 328.062 2095.91 336.246 2087.6 342.735 2076.52 347.53 2065.44 352.325 2051.97 354.722 2036.1 354.722 2022.38 354.722 2009.11 352.862 1996.29 349.142 1983.48 345.422 1973.19 340.586 1965.42 334.634L1979.06 304.378C1986.5 309.834 1995.34 314.215 2005.59 317.522 2015.84 320.829 2026.1 322.482 2036.35 322.482 2047.75 322.482 2056.19 320.787 2061.64 317.398 2067.1 314.009 2069.83 309.503 2069.83 303.882 2069.83 299.749 2068.21 296.318 2064.99 293.59 2061.77 290.862 2057.63 288.671 2052.59 287.018 2047.55 285.365 2040.73 283.546 2032.13 281.562 2018.9 278.421 2008.07 275.279 1999.64 272.138 1991.21 268.997 1983.98 263.954 1977.94 257.01 1971.91 250.066 1968.89 240.807 1968.89 229.234 1968.89 219.149 1971.62 210.014 1977.07 201.83 1982.53 193.646 1990.76 187.157 2001.75 182.362 2012.74 177.567 2026.18 175.17 2042.05 175.17ZM1884.05 175.17C1895.13 175.17 1905.96 176.493 1916.54 179.138 1927.12 181.783 1936.38 185.586 1944.31 190.546L1931.91 221.05C1915.88 211.957 1899.84 207.41 1883.8 207.41 1872.56 207.41 1864.25 209.229 1858.88 212.866 1853.5 216.503 1850.82 221.298 1850.82 227.25 1850.82 233.202 1853.92 237.625 1860.12 240.518 1866.32 243.411 1875.78 246.263 1888.51 249.074 1901.74 252.215 1912.57 255.357 1921 258.498 1929.43 261.639 1936.67 266.599 1942.7 273.378 1948.74 280.157 1951.75 289.333 1951.75 300.906 1951.75 310.826 1948.98 319.878 1943.45 328.062 1937.91 336.246 1929.6 342.735 1918.52 347.53 1907.44 352.325 1893.97 354.722 1878.1 354.722 1864.38 354.722 1851.11 352.862 1838.29 349.142 1825.48 345.422 1815.19 340.586 1807.42 334.634L1821.06 304.378C1828.5 309.834 1837.34 314.215 1847.59 317.522 1857.84 320.829 1868.1 322.482 1878.35 322.482 1889.75 322.482 1898.19 320.787 1903.64 317.398 1909.1 314.009 1911.83 309.503 1911.83 303.882 1911.83 299.749 1910.21 296.318 1906.99 293.59 1903.77 290.862 1899.63 288.671 1894.59 287.018 1889.55 285.365 1882.73 283.546 1874.13 281.562 1860.9 278.421 1850.07 275.279 1841.64 272.138 1833.21 268.997 1825.98 263.954 1819.94 257.01 1813.91 250.066 1810.89 240.807 1810.89 229.234 1810.89 219.149 1813.62 210.014 1819.07 201.83 1824.53 193.646 1832.76 187.157 1843.75 182.362 1854.74 177.567 1868.18 175.17 1884.05 175.17ZM1696.13 175.17C1714.15 175.17 1730.35 179.055 1744.74 186.826 1759.12 194.597 1770.45 205.302 1778.71 218.942 1786.98 232.582 1791.11 247.917 1791.11 264.946 1791.11 281.975 1786.98 297.31 1778.71 310.95 1770.45 324.59 1759.12 335.295 1744.74 343.066 1730.35 350.837 1714.15 354.722 1696.13 354.722 1678.11 354.722 1661.86 350.837 1647.4 343.066 1632.93 335.295 1621.61 324.59 1613.42 310.95 1605.24 297.31 1601.15 281.975 1601.15 264.946 1601.15 247.917 1605.24 232.582 1613.42 218.942 1621.61 205.302 1632.93 194.597 1647.4 186.826 1661.86 179.055 1678.11 175.17 1696.13 175.17Z" stroke="#A2A2A2" stroke-width="4" stroke-linejoin="round" stroke-miterlimit="10" fill="none" fill-rule="evenodd"/><text fill="#000000" fill-opacity="0" font-family="Arial,Arial_MSFontService,sans-serif" font-size="179.552" x="1412.06" y="332.278">NOSSOS</text></g></svg>