<?xml version="1.0" encoding="UTF-8" standalone="no"?>
<!DOCTYPE svg PUBLIC "-//W3C//DTD SVG 1.1//EN" "http://www.w3.org/Graphics/SVG/1.1/DTD/svg11.dtd">
<svg xmlns="http://www.w3.org/2000/svg" version="1.1" viewBox="0 0 1254 835" width="1254.0pt" height="835.0pt">
<path d="M 0.00 0.00 L 1254.00 0.00 L 1254.00 835.00 L 0.00 835.00 L 0.00 0.00 Z" fill="#ffffff" />
<path d="M 827.07 138.85 C 830.79 137.68 835.53 138.91 839.28 139.70 C 839.60 155.62 839.45 171.55 839.45 187.47 C 842.20 188.31 844.94 189.17 847.62 190.22 C 847.86 199.81 847.63 209.41 847.74 219.00 C 847.64 222.55 847.98 226.34 847.21 229.82 C 845.98 231.45 844.15 232.66 842.52 233.88 C 842.54 276.14 842.38 318.41 842.66 360.66 C 848.00 362.00 853.72 362.08 857.78 366.25 C 861.57 369.97 862.47 374.87 862.35 380.00 C 862.15 386.68 862.85 393.66 861.51 400.12 C 857.84 401.38 854.16 402.62 850.51 403.93 C 850.42 405.74 850.34 407.55 850.27 409.35 C 851.98 409.43 853.69 409.51 855.40 409.59 C 858.06 412.94 857.71 416.24 857.53 420.27 C 855.28 422.06 852.70 423.52 850.63 425.51 C 849.98 429.21 850.36 433.16 850.41 436.91 C 852.24 437.40 854.72 437.46 856.21 438.68 C 857.80 441.83 857.76 445.87 857.25 449.27 C 856.49 452.08 852.60 453.57 850.33 454.97 C 850.23 459.13 850.22 463.29 850.21 467.45 C 852.37 468.18 854.52 468.93 856.66 469.71 C 856.81 473.22 856.81 476.71 856.55 480.21 C 854.28 481.64 851.62 482.78 849.66 484.62 C 849.10 489.00 849.41 493.52 849.55 497.92 C 851.58 498.46 853.60 499.02 855.62 499.60 C 856.42 503.89 856.53 507.90 855.49 512.16 C 853.44 512.37 851.38 512.57 849.33 512.76 C 849.34 518.64 848.54 524.50 850.93 529.99 C 853.10 535.34 854.51 540.64 853.40 546.47 C 852.79 548.61 849.79 549.74 847.99 550.74 C 845.52 549.25 843.14 547.99 841.53 545.48 C 840.11 543.17 839.21 540.49 838.20 537.99 C 836.32 539.25 834.46 540.53 832.63 541.86 C 832.25 547.21 833.33 554.01 830.80 558.82 C 828.90 563.02 822.08 562.83 819.95 558.93 C 817.30 554.61 817.96 548.48 818.10 543.72 C 817.69 540.91 814.04 538.88 812.01 537.16 C 810.52 542.55 808.61 546.39 804.99 550.65 C 801.77 549.70 796.87 549.09 796.30 544.97 C 795.12 536.77 801.57 528.83 803.15 521.04 C 803.43 518.69 803.74 515.57 802.38 513.50 C 800.49 512.30 797.72 512.57 795.54 512.35 C 794.99 508.53 794.77 504.88 795.30 501.04 C 797.03 500.52 798.75 499.97 800.47 499.41 C 800.49 496.43 800.53 493.46 800.55 490.48 C 808.23 487.57 816.01 485.73 824.00 483.96 C 832.88 481.94 841.67 479.57 850.43 477.10 C 850.05 475.77 849.67 474.44 849.28 473.11 C 838.82 474.34 828.22 477.99 817.98 480.57 C 810.20 482.53 802.50 484.71 794.78 486.89 C 794.72 484.26 794.48 481.49 794.85 478.88 C 796.08 477.08 798.64 476.12 800.48 475.08 C 800.49 470.39 800.48 465.69 800.63 461.00 C 809.97 458.68 819.25 456.13 828.55 453.70 C 836.09 451.79 843.48 450.26 850.81 447.54 C 850.72 446.14 850.62 444.74 850.51 443.35 C 845.06 443.69 840.16 445.28 834.89 446.61 C 821.65 450.31 808.24 453.50 795.16 457.75 C 794.68 454.43 794.60 451.11 794.69 447.77 C 796.62 446.92 798.56 446.08 800.50 445.25 C 800.49 440.75 800.49 436.25 800.48 431.75 C 817.08 427.04 833.89 422.99 850.46 418.19 C 850.57 416.93 850.68 415.67 850.78 414.41 C 847.83 414.46 844.92 414.54 842.05 415.24 C 826.15 418.91 810.69 424.23 794.72 427.79 C 794.62 424.48 794.60 421.18 794.67 417.86 C 796.60 417.22 798.54 416.58 800.47 415.96 C 800.69 411.24 800.51 406.58 800.44 401.87 C 796.12 401.72 791.86 401.42 787.64 400.51 C 787.39 392.02 785.89 384.48 787.24 375.95 C 787.90 370.87 791.22 366.17 795.67 363.69 C 799.23 361.71 803.77 361.60 807.73 361.32 C 807.70 334.14 807.75 306.97 807.66 279.79 C 804.10 279.70 800.56 279.61 797.01 279.20 C 752.29 273.92 707.49 269.37 662.77 264.23 C 625.95 259.91 589.06 256.04 552.27 251.44 C 545.99 262.74 539.34 273.83 532.99 285.09 C 519.45 308.62 506.35 332.39 493.05 356.05 C 486.90 366.88 481.12 377.89 474.64 388.53 C 469.42 389.04 464.21 389.52 458.95 389.57 C 456.94 376.65 452.84 363.61 448.89 351.20 C 444.20 336.37 439.79 321.45 435.04 306.64 C 434.20 303.68 432.35 300.43 432.35 297.38 C 433.98 293.89 436.49 290.79 438.50 287.50 C 462.62 251.36 486.89 215.32 511.30 179.37 C 514.37 174.87 517.23 169.94 522.22 167.31 C 526.03 165.19 530.87 165.55 535.09 165.81 C 546.57 167.06 558.04 169.71 569.45 171.36 C 575.98 172.20 582.35 173.74 588.81 174.93 C 588.83 177.72 588.74 180.49 588.60 183.27 C 598.58 185.13 608.60 186.75 618.58 188.65 C 651.75 194.85 684.99 200.61 718.16 206.79 C 746.30 211.71 774.33 217.17 802.52 221.80 C 802.63 211.72 802.42 201.64 802.54 191.57 C 802.99 190.91 803.44 190.26 803.88 189.60 C 806.20 189.05 808.51 188.56 810.85 188.13 C 811.94 177.21 810.66 166.09 811.43 155.14 C 812.00 152.58 814.81 150.41 816.52 148.51 C 819.88 145.33 822.99 141.09 827.07 138.85 Z" fill="#273b46" />
<path d="M 281.88 152.40 C 285.25 152.03 288.60 151.69 292.00 151.74 C 303.02 151.84 314.00 151.53 325.00 152.38 C 328.15 161.73 331.74 170.79 333.41 180.58 C 346.20 183.47 358.86 186.32 370.95 191.57 C 378.38 184.95 386.36 179.05 394.21 172.95 C 406.64 180.14 418.41 188.45 430.57 196.08 C 427.85 205.66 425.26 215.29 423.01 225.00 C 427.77 230.56 432.97 235.72 437.65 241.37 C 440.62 244.97 444.38 248.22 446.78 252.23 C 446.40 254.24 444.96 256.14 443.86 257.84 C 439.89 263.63 436.12 269.55 432.13 275.33 C 420.81 258.64 406.17 244.86 389.71 233.33 C 383.97 229.56 378.04 226.09 371.88 223.06 C 355.20 214.48 336.51 209.71 317.89 208.04 C 276.98 204.25 235.00 218.73 205.92 247.93 C 191.86 261.28 180.50 277.64 172.48 295.27 C 164.35 313.95 160.25 334.69 159.57 355.00 C 158.19 391.38 169.84 427.94 192.59 456.42 C 198.69 463.75 205.36 470.58 212.53 476.87 C 207.57 483.81 202.98 491.04 197.89 497.87 C 197.08 499.06 196.05 498.75 195.12 497.90 C 190.39 493.98 186.07 489.58 181.35 485.64 C 175.65 488.96 169.83 492.06 164.00 495.15 C 161.49 496.43 158.83 498.25 156.04 498.77 C 154.94 498.65 154.12 497.32 153.35 496.61 C 146.10 488.30 139.95 479.40 133.42 470.55 C 131.94 468.46 130.26 466.28 129.34 463.88 C 130.72 460.36 134.02 457.28 136.17 454.12 C 139.56 449.34 143.82 444.95 146.72 439.87 C 146.47 438.24 145.74 436.64 145.12 435.12 C 141.15 425.86 137.59 416.33 135.03 406.58 C 125.34 404.87 115.62 403.65 106.06 401.23 C 104.04 386.94 103.38 372.44 102.52 358.05 C 111.41 353.85 120.32 349.81 129.52 346.34 C 129.91 333.48 132.35 321.32 134.65 308.78 C 132.73 306.30 130.16 304.26 127.83 302.19 C 123.06 298.18 118.77 293.74 114.26 289.46 C 117.96 280.53 121.74 271.62 125.76 262.82 C 127.52 259.09 128.93 254.88 131.40 251.56 C 141.10 251.95 150.93 253.85 160.45 255.77 C 167.64 244.90 176.09 234.67 185.56 225.71 C 183.35 218.61 181.14 211.51 178.95 204.40 C 178.34 202.18 177.54 199.81 177.49 197.49 C 180.24 194.59 184.03 192.53 187.34 190.33 C 193.61 186.22 199.92 182.20 206.32 178.29 C 208.79 176.84 211.28 174.82 214.06 174.08 C 215.74 174.79 217.18 176.27 218.55 177.45 C 224.26 182.68 230.37 187.43 236.10 192.63 C 246.91 188.56 257.62 184.71 269.00 182.52 C 270.81 182.17 272.55 181.85 274.29 181.23 C 275.25 179.66 275.66 177.71 276.14 175.94 C 277.99 168.08 279.85 160.22 281.88 152.40 Z" fill="#273b46" />
<path d="M 584.75 194.62 C 585.35 194.65 585.96 194.71 586.56 194.81 C 611.33 199.59 636.19 203.88 660.99 208.53 C 705.03 216.66 749.06 224.82 793.15 232.70 C 797.97 233.63 802.80 234.45 807.70 234.78 C 807.75 239.36 807.75 243.94 807.71 248.53 C 735.72 237.17 663.58 224.46 591.84 212.12 C 587.50 211.35 583.16 210.58 578.78 210.03 C 580.67 204.89 582.25 199.49 584.75 194.62 Z" fill="#ffffff" />
<path d="M 348.71 227.58 C 359.37 231.15 370.02 235.40 379.61 241.33 C 392.78 249.08 404.34 259.15 414.29 270.72 C 418.38 275.75 422.37 280.71 425.36 286.51 C 423.77 287.68 422.19 288.87 420.58 290.02 C 408.29 274.37 392.73 261.21 375.18 251.81 C 340.46 232.83 297.75 229.74 261.47 246.30 C 239.86 255.88 221.63 272.03 208.72 291.75 C 183.43 329.65 179.66 380.27 197.95 421.85 C 204.75 438.00 214.76 452.43 226.70 465.19 C 225.03 467.23 222.98 468.98 221.12 470.86 C 213.98 464.58 207.92 457.42 202.03 449.99 C 183.62 426.20 173.32 396.08 173.34 366.00 C 172.99 353.91 173.98 341.93 176.46 330.09 C 180.04 313.23 187.14 296.95 196.49 282.50 C 204.36 271.55 212.89 260.99 223.58 252.65 C 257.59 224.27 306.45 215.34 348.71 227.58 Z" fill="#273b46" />
<path d="M 836.27 234.18 C 836.58 276.27 836.27 318.38 836.27 360.47 C 834.76 360.49 833.26 360.50 831.76 360.51 C 831.83 323.01 831.77 285.50 831.79 248.00 C 831.90 243.44 832.29 238.96 831.76 234.41 C 833.26 234.33 834.77 234.25 836.27 234.18 Z" fill="#ffffff" />
<path d="M 359.10 301.14 C 363.09 300.58 366.89 300.49 370.88 301.06 C 389.46 302.65 407.94 305.64 426.47 307.72 C 435.53 337.62 444.07 367.75 452.68 397.79 C 458.46 397.74 464.21 397.79 469.99 398.12 C 482.32 398.27 494.66 398.07 506.99 398.20 C 509.95 398.39 512.84 398.06 515.37 399.77 C 518.26 401.54 519.65 404.68 519.65 408.01 C 519.80 416.00 519.56 424.01 519.75 432.00 C 519.73 434.30 519.91 436.91 519.17 439.11 C 517.66 442.26 514.76 444.89 511.05 444.67 C 497.19 444.71 483.30 444.61 469.44 444.57 C 469.51 448.89 469.58 453.21 469.69 457.53 C 410.58 457.48 351.46 457.48 292.35 457.53 C 292.37 453.21 292.37 448.90 292.34 444.58 C 276.56 444.59 260.75 444.62 244.98 444.57 C 238.91 444.82 233.10 439.11 233.33 433.03 C 233.27 416.68 233.34 400.31 233.29 383.95 C 233.00 378.60 236.28 372.69 242.08 372.33 C 254.83 372.00 267.63 372.29 280.39 372.21 C 282.60 354.51 284.80 336.94 286.99 319.23 C 287.40 315.68 288.07 312.19 288.80 308.70 C 292.59 308.17 296.35 307.52 300.15 307.12 C 319.80 305.03 339.42 302.87 359.10 301.14 Z" fill="#273b46" />
<path d="M 358.78 313.00 C 358.25 332.88 356.36 352.78 356.22 372.67 C 335.62 372.50 314.87 371.60 294.29 372.82 C 294.74 363.72 296.16 354.79 297.03 345.72 C 298.16 336.73 298.82 327.67 300.28 318.73 C 319.78 316.78 339.26 314.84 358.78 313.00 Z" fill="#f6bc51" />
<path d="M 371.48 312.99 C 372.50 313.13 373.52 313.27 374.54 313.41 C 382.00 314.50 389.49 315.34 396.96 316.36 C 403.41 317.25 409.80 317.73 416.11 319.41 C 423.65 348.91 431.25 378.41 439.38 407.75 C 424.50 407.64 409.64 407.55 394.77 407.67 C 390.45 401.53 386.01 395.47 381.59 389.40 C 377.80 384.81 378.42 378.23 377.60 372.52 C 375.29 352.70 373.56 332.83 371.48 312.99 Z" fill="#f6bc51" />
<path d="M 289.00 388.24 C 295.22 388.41 301.51 387.94 307.71 388.45 C 310.18 388.83 309.91 392.26 307.78 393.13 C 305.58 393.58 303.23 393.47 301.00 393.46 C 290.68 393.21 280.32 393.39 270.00 393.43 C 265.07 393.37 260.50 393.71 255.64 392.60 C 255.50 391.24 255.37 389.88 255.26 388.52 C 266.27 386.99 277.87 388.31 289.00 388.24 Z" fill="#f6bc51" />
<path d="M 270.00 402.74 C 282.90 402.84 295.67 402.44 308.54 403.26 C 308.88 404.65 309.22 406.04 309.56 407.44 C 306.73 408.06 303.91 408.52 301.00 408.48 C 288.67 408.32 276.33 408.26 264.00 408.45 C 261.13 408.51 258.34 408.02 255.55 407.44 C 255.62 406.11 255.70 404.78 255.81 403.45 C 260.61 402.41 265.15 402.73 270.00 402.74 Z" fill="#f6bc51" />
<path d="M 272.00 417.82 C 284.24 417.80 296.48 417.86 308.72 417.79 C 308.79 419.88 310.07 421.73 308.02 423.18 C 304.74 423.68 301.31 423.44 298.00 423.47 C 286.00 423.44 274.00 423.43 262.00 423.50 C 259.82 423.37 257.46 423.66 255.70 422.13 C 255.31 421.00 255.45 419.65 255.45 418.47 C 261.06 417.46 266.34 417.85 272.00 417.82 Z" fill="#f6bc51" />
<path d="M 920.20 434.44 C 923.79 437.44 926.37 441.21 928.69 445.22 C 933.51 453.46 938.56 461.56 943.25 469.88 C 949.81 461.92 956.72 454.29 963.83 446.82 C 967.50 443.04 971.03 438.30 975.56 435.57 C 978.15 433.87 981.76 434.02 984.28 435.79 C 987.75 438.10 990.66 441.43 993.29 444.63 C 999.94 452.98 1006.68 461.25 1013.28 469.63 C 1015.26 472.14 1017.51 474.37 1019.77 476.62 C 1023.81 476.22 1028.23 475.30 1032.26 475.71 C 1034.96 476.49 1037.41 478.67 1039.49 480.50 C 1044.38 484.97 1049.61 489.02 1054.60 493.37 C 1073.84 510.71 1093.83 527.21 1113.23 544.38 C 1081.55 544.67 1049.86 544.39 1018.18 544.55 C 976.45 544.90 934.68 544.32 892.99 544.59 C 889.98 544.68 887.64 543.32 885.11 541.90 C 878.08 537.75 870.82 534.29 864.28 529.31 C 867.60 517.47 872.76 506.02 877.87 494.85 C 886.00 476.92 896.51 460.82 907.82 444.78 C 910.12 441.62 912.37 437.82 915.45 435.40 C 916.76 434.20 918.56 434.52 920.20 434.44 Z" fill="#273b46" />
<path d="M 718.63 445.38 C 725.34 453.20 732.15 460.95 739.04 468.62 C 742.71 467.49 746.34 466.22 750.04 465.16 C 759.98 482.22 769.45 499.87 776.81 518.22 C 778.86 523.24 780.56 528.40 782.63 533.41 C 776.57 533.53 770.50 533.44 764.44 533.68 C 760.18 537.05 756.29 540.81 752.33 544.52 C 543.56 544.47 334.76 544.55 125.99 544.47 C 135.70 540.69 145.31 536.66 154.98 532.76 C 165.80 528.29 176.80 524.30 187.55 519.64 C 191.93 517.85 196.11 515.63 200.95 515.62 C 207.91 515.51 214.86 515.69 221.82 515.68 C 221.21 513.80 220.58 511.93 220.03 510.04 C 217.53 502.26 218.12 493.45 220.84 485.81 C 223.36 478.41 229.58 472.20 236.10 468.13 C 243.84 463.69 251.43 464.39 260.00 464.20 C 337.67 464.20 415.33 464.20 493.00 464.20 C 497.23 464.26 501.53 464.18 505.73 464.74 C 512.57 466.04 518.98 469.08 523.65 474.36 C 536.00 487.39 535.86 509.70 523.99 522.99 C 521.78 525.32 519.43 527.52 517.14 529.78 C 521.84 528.35 526.30 527.20 530.43 524.37 C 537.25 519.74 543.08 513.20 545.07 505.02 C 547.26 497.40 546.94 489.52 543.79 482.21 C 541.17 475.61 536.39 470.51 530.73 466.36 C 527.28 463.87 522.74 462.75 518.75 461.01 C 530.28 458.37 541.36 459.79 552.99 458.85 C 558.62 458.64 564.27 458.70 569.90 459.11 C 576.38 459.55 583.60 458.54 589.73 460.57 C 597.01 462.81 603.65 467.84 607.46 474.48 C 611.09 481.20 611.83 488.48 611.48 496.00 C 611.17 506.57 606.87 516.82 599.78 524.63 C 608.26 522.11 616.23 518.94 622.88 512.92 C 634.93 501.91 645.11 487.58 655.85 475.21 C 662.43 478.43 667.96 482.94 674.09 486.88 C 684.52 473.72 695.07 460.65 705.52 447.51 C 707.26 445.31 709.16 443.29 711.33 441.51 C 714.70 441.65 716.49 442.95 718.63 445.38 Z" fill="#273b46" />
<path d="M 872.55 443.34 C 876.32 444.55 879.95 445.37 881.35 449.54 C 882.64 454.67 879.73 460.31 875.16 462.80 C 872.03 461.14 869.04 460.24 868.82 456.14 C 869.19 451.86 869.10 446.40 872.55 443.34 Z" fill="#273b46" />
<path d="M 916.65 452.69 C 924.69 467.17 932.38 481.83 939.11 496.98 C 932.54 492.23 926.59 486.76 920.22 481.76 C 917.39 479.57 916.14 476.82 915.67 473.33 C 914.86 466.50 915.40 459.43 916.65 452.69 Z" fill="#f6bc51" />
<path d="M 977.56 452.80 C 988.35 467.06 998.83 481.70 1007.78 497.21 C 999.60 492.45 991.71 487.24 983.53 482.48 C 980.88 480.77 978.10 479.20 977.07 476.01 C 974.39 468.51 976.00 460.36 977.56 452.80 Z" fill="#f6bc51" />
<path d="M 712.82 456.31 C 717.33 467.28 721.52 478.36 725.56 489.52 C 726.52 492.24 727.15 495.04 727.72 497.87 C 722.30 493.91 717.67 488.49 711.85 485.20 C 709.52 486.14 707.48 487.97 705.52 489.50 C 699.94 494.05 694.24 498.44 688.17 502.32 C 692.05 493.33 697.23 485.38 701.70 476.61 C 705.35 469.82 709.00 463.01 712.82 456.31 Z" fill="#f6bc51" />
<path d="M 258.00 475.72 C 336.33 475.76 414.67 475.73 493.00 475.74 C 498.62 475.89 504.58 476.57 509.53 479.43 C 515.54 482.81 519.61 489.15 520.47 495.95 C 521.94 508.74 511.16 521.79 498.01 521.51 C 419.68 521.55 341.33 521.51 263.00 521.53 C 259.66 521.53 256.29 521.64 252.95 521.46 C 245.06 521.10 237.53 516.11 233.84 509.16 C 229.37 500.95 230.83 490.07 237.34 483.34 C 242.75 477.49 250.31 475.80 258.00 475.72 Z" fill="#f6bc51" />
<path d="M 1029.00 490.05 C 1035.61 494.22 1040.42 499.63 1046.32 504.68 C 1048.62 506.63 1049.61 508.64 1050.41 511.51 C 1045.29 509.96 1040.10 508.60 1035.00 506.99 C 1033.82 506.49 1031.82 506.09 1031.43 504.68 C 1029.63 500.16 1029.51 494.85 1029.00 490.05 Z" fill="#f6bc51" />
<path d="M 659.06 490.69 C 661.48 492.66 663.71 494.82 665.95 497.00 C 657.90 504.15 648.84 509.82 639.42 514.95 C 643.54 509.60 648.22 504.73 652.33 499.37 C 654.60 496.44 656.67 493.49 659.06 490.69 Z" fill="#f6bc51" />
<path d="M 810.34 513.76 C 821.02 513.79 831.83 513.21 842.47 514.17 C 842.43 518.21 842.44 522.26 842.49 526.30 C 840.98 527.09 839.47 527.87 837.97 528.67 C 836.40 531.50 834.66 534.07 831.88 535.86 C 827.72 539.04 820.92 538.55 817.36 534.63 C 815.59 532.84 814.73 530.06 813.80 527.76 C 812.57 527.28 810.90 527.09 809.93 526.19 C 809.47 522.11 809.57 517.80 810.34 513.76 Z" fill="#ffffff" />
<path d="M 837.38 521.05 C 837.55 522.04 837.71 523.02 837.87 524.01 C 836.93 523.87 836.00 523.72 835.06 523.57 C 835.81 522.71 836.58 521.87 837.38 521.05 Z" fill="#273b46" />
<path d="M 819.02 522.05 C 819.70 523.59 820.32 525.16 820.91 526.74 C 823.53 527.04 826.53 527.58 829.13 527.03 C 830.68 525.91 831.94 524.36 833.30 523.00 C 833.48 524.67 833.64 526.34 833.79 528.01 C 831.72 529.51 829.85 531.11 828.06 532.94 C 826.07 532.82 823.80 532.94 821.91 532.22 C 820.57 531.23 819.79 529.41 818.98 527.98 C 818.15 527.33 817.33 526.68 816.50 526.04 C 817.05 523.79 816.35 522.58 819.02 522.05 Z" fill="#273b46" />
<path d="M 807.35 529.89 C 807.11 533.04 806.91 536.32 806.10 539.39 C 805.29 542.29 803.39 544.13 801.43 546.28 C 801.40 539.40 802.77 535.02 807.35 529.89 Z" fill="#ffffff" />
<path d="M 843.70 529.24 C 845.70 531.95 847.10 534.96 848.34 538.07 C 848.65 540.53 848.76 542.99 848.86 545.46 L 847.03 544.33 C 844.08 539.58 842.50 534.91 843.70 529.24 Z" fill="#ffffff" />
<path d="M 848.34 538.07 C 848.96 539.62 849.71 541.26 849.92 542.92 C 849.55 544.25 849.00 545.46 848.47 546.73 C 847.99 545.93 847.51 545.13 847.03 544.33 L 848.86 545.46 C 848.76 542.99 848.65 540.53 848.34 538.07 Z" fill="#273b46" />
<path d="M 823.84 544.44 C 824.97 543.91 826.12 543.45 827.32 543.05 C 827.41 548.16 828.02 552.96 826.41 557.93 C 825.53 557.72 824.65 557.52 823.77 557.31 C 823.38 553.12 823.12 548.60 823.84 544.44 Z" fill="#ffffff" />
<path d="M 868.50 545.52 C 874.10 544.17 878.67 549.05 881.96 552.86 C 877.67 557.98 872.31 562.00 866.04 564.34 C 863.07 565.31 861.31 563.36 858.91 562.05 C 860.24 558.16 862.70 555.15 864.56 551.53 C 865.69 549.51 866.81 547.12 868.50 545.52 Z" fill="#273b46" />
<path d="M 772.62 548.84 C 776.53 548.12 781.37 550.39 783.29 553.89 C 784.92 558.01 782.38 562.63 778.03 563.35 C 773.58 563.47 768.71 561.46 765.33 558.58 C 763.76 557.46 763.94 555.33 764.63 553.76 C 766.40 550.92 769.42 549.44 772.62 548.84 Z" fill="#273b46" />
<path d="M 958.99 572.39 C 969.26 572.71 979.33 575.63 988.19 580.84 C 991.57 582.88 995.41 584.99 998.00 588.02 C 999.69 589.82 998.09 592.35 997.14 594.11 C 994.58 598.24 991.97 602.34 989.35 606.43 C 988.03 608.05 986.89 610.55 984.38 609.60 C 980.84 608.05 977.77 605.46 974.30 603.71 C 966.68 599.52 957.04 597.12 948.51 599.59 C 944.22 600.87 940.80 604.30 941.52 609.08 C 942.19 613.57 947.31 615.91 951.17 617.07 C 962.57 620.27 974.62 622.65 984.91 629.12 C 992.53 633.99 998.03 641.78 998.71 650.96 C 999.01 657.40 999.18 663.45 996.64 669.52 C 993.37 677.80 986.82 684.14 978.88 688.00 C 967.79 693.47 954.06 694.21 941.98 692.59 C 932.12 691.50 922.88 687.66 914.48 682.50 C 911.94 680.86 908.98 678.82 907.52 676.11 C 907.46 672.63 910.50 669.14 912.20 666.23 C 914.69 662.70 916.58 658.23 919.84 655.38 C 922.32 655.42 923.92 656.85 925.91 658.10 C 930.38 661.18 935.34 663.57 940.50 665.25 C 945.86 667.00 951.41 666.92 956.99 666.67 C 960.55 666.48 964.29 665.44 966.86 662.84 C 969.03 660.64 969.23 657.38 968.40 654.55 C 966.83 651.07 962.12 649.45 958.76 648.28 C 948.44 645.06 938.42 643.63 928.60 638.39 C 921.24 634.54 915.09 628.33 912.78 620.19 C 910.71 612.64 910.93 604.06 913.45 596.65 C 915.95 588.80 922.28 582.35 929.33 578.34 C 938.12 573.41 949.05 571.92 958.99 572.39 Z" fill="#273b46" />
<path d="M 120.98 574.33 C 133.88 574.45 146.79 574.26 159.69 574.44 C 170.33 574.59 180.74 576.03 190.56 580.35 C 203.61 585.87 214.24 596.63 218.90 610.10 C 223.23 622.77 223.43 636.92 219.98 649.83 C 216.71 662.48 208.43 673.45 197.46 680.48 C 184.90 688.53 170.72 691.06 156.00 691.28 C 144.00 691.26 132.01 691.24 120.01 691.30 C 118.00 691.22 116.22 691.43 114.45 690.31 C 113.04 689.39 113.40 687.50 113.23 686.05 C 113.23 653.70 113.24 621.35 113.23 589.00 C 113.26 584.58 113.07 580.04 113.54 575.65 C 115.94 574.50 118.35 574.27 120.98 574.33 Z" fill="#273b46" />
<path d="M 257.94 574.35 C 270.63 574.39 283.32 574.35 296.01 574.38 C 307.58 574.55 318.77 575.41 329.15 581.01 C 337.03 585.14 342.72 592.59 344.83 601.22 C 347.30 611.52 346.60 623.74 341.00 632.96 C 337.42 639.01 332.09 643.25 326.06 646.71 C 332.62 656.86 339.34 666.90 345.96 677.01 C 348.78 681.45 352.00 685.08 353.33 690.31 C 347.13 691.88 341.45 691.10 335.00 691.27 C 331.11 691.17 326.95 691.66 323.14 690.80 C 320.15 690.13 318.42 687.56 316.84 685.17 C 311.11 675.91 305.31 666.70 299.60 657.43 C 298.59 656.04 297.49 653.84 295.60 653.66 C 290.69 653.01 285.58 653.34 280.65 653.72 C 280.29 664.81 280.65 675.93 280.47 687.02 C 280.51 689.27 279.52 690.67 277.27 691.10 C 270.87 691.51 264.41 691.16 258.00 691.29 C 255.85 691.21 252.83 691.35 251.94 688.88 C 251.25 685.71 251.60 682.24 251.54 679.00 C 251.56 646.33 251.57 613.65 251.53 580.99 C 251.61 579.16 251.52 577.14 252.56 575.55 C 253.85 574.25 256.24 574.47 257.94 574.35 Z" fill="#273b46" />
<path d="M 380.37 574.62 C 386.87 574.03 393.52 574.51 400.06 574.35 C 402.34 574.55 405.16 574.04 406.18 576.65 C 406.71 579.35 406.47 582.25 406.51 585.00 C 406.43 618.92 406.56 653.14 406.45 687.03 C 406.51 690.47 404.09 691.32 401.06 691.27 C 393.53 691.09 385.74 691.86 378.32 690.51 C 377.18 685.64 377.56 680.94 377.53 676.00 C 377.55 644.03 377.52 611.91 377.54 579.96 C 377.67 577.81 377.69 575.03 380.37 574.62 Z" fill="#273b46" />
<path d="M 456.00 574.36 C 461.45 574.54 466.20 573.65 471.36 575.59 C 471.78 598.71 471.43 621.87 471.55 645.00 C 471.67 651.09 471.26 657.25 471.74 663.33 C 472.93 664.73 474.35 664.28 476.00 664.44 C 489.01 664.40 502.02 664.42 515.03 664.40 C 517.71 664.49 520.60 664.44 521.22 667.71 C 521.71 674.73 521.21 681.83 521.45 688.87 C 519.73 690.18 518.40 691.47 516.06 691.26 C 493.75 691.29 471.31 691.23 449.00 691.29 C 446.85 691.21 443.90 691.34 442.99 688.89 C 442.29 685.72 442.65 682.24 442.58 679.00 C 442.60 646.33 442.61 613.65 442.58 580.99 C 442.72 578.92 442.42 575.70 444.79 574.79 C 448.39 574.01 452.32 574.46 456.00 574.36 Z" fill="#273b46" />
<path d="M 554.94 574.35 C 561.90 574.43 568.90 574.15 575.84 574.66 C 576.37 575.36 576.91 576.06 577.44 576.76 C 577.62 601.17 577.47 625.59 577.52 650.00 C 577.59 654.44 577.28 658.94 577.72 663.36 C 578.92 664.74 580.36 664.28 582.00 664.44 C 595.01 664.40 608.02 664.42 621.03 664.40 C 623.71 664.49 626.56 664.46 627.19 667.72 C 627.68 674.73 627.16 681.81 627.43 688.84 C 624.02 692.31 620.38 691.09 616.00 691.28 C 595.67 691.25 575.33 691.25 555.00 691.29 C 552.85 691.21 549.83 691.35 548.96 688.87 C 548.28 685.70 548.62 682.24 548.56 679.00 C 548.58 646.33 548.59 613.65 548.55 580.99 C 548.63 579.16 548.56 577.20 549.54 575.58 C 550.89 574.25 553.18 574.47 554.94 574.35 Z" fill="#273b46" />
<path d="M 664.00 574.34 C 675.65 574.43 687.29 574.29 698.93 574.41 C 710.18 574.65 721.65 575.81 731.64 581.40 C 738.95 585.38 744.43 591.93 747.08 599.82 C 749.87 608.24 750.19 617.56 748.80 626.27 C 747.34 635.58 742.41 644.21 734.81 649.85 C 726.47 656.20 715.29 658.71 705.03 659.51 C 697.85 660.19 690.73 659.35 683.61 660.30 C 683.30 669.20 683.64 678.12 683.45 687.02 C 683.43 689.25 682.54 690.70 680.24 691.10 C 673.86 691.52 667.40 691.15 661.00 691.29 C 658.82 691.21 655.86 691.37 654.93 688.88 C 654.23 685.71 654.58 682.24 654.52 679.00 C 654.54 646.33 654.55 613.65 654.51 580.99 C 654.65 578.93 654.35 575.69 656.70 574.78 C 659.04 574.22 661.61 574.37 664.00 574.34 Z" fill="#273b46" />
<path d="M 782.94 574.38 C 788.31 574.30 793.68 574.40 799.04 574.34 C 801.25 574.47 803.74 574.14 805.44 575.85 C 806.18 577.38 806.17 579.33 806.22 580.99 C 806.17 599.00 806.21 617.00 806.19 635.01 C 806.23 641.77 806.44 648.43 809.28 654.71 C 811.63 659.92 816.12 663.95 821.65 665.53 C 829.72 667.72 840.42 666.90 846.54 660.54 C 851.75 655.36 853.68 647.14 853.62 640.00 C 853.68 619.99 853.61 599.94 853.64 579.94 C 853.62 577.42 854.22 574.80 857.17 574.53 C 865.20 574.20 873.36 574.28 881.40 574.62 C 883.25 578.34 882.74 582.00 882.78 586.00 C 882.72 605.01 882.80 624.02 882.74 643.03 C 882.58 655.81 878.81 668.48 869.94 677.94 C 861.87 686.51 850.61 691.42 839.00 692.67 C 829.71 693.95 820.09 693.48 811.00 691.17 C 801.15 688.50 791.72 682.55 785.98 674.00 C 779.63 664.80 777.34 654.04 777.29 643.00 C 777.14 624.33 777.28 605.66 777.21 587.00 C 777.21 583.18 777.12 579.49 777.60 575.69 C 779.32 574.90 781.02 574.37 782.94 574.38 Z" fill="#273b46" />
<path d="M 1032.95 574.43 C 1038.97 574.25 1045.01 574.40 1051.04 574.36 C 1052.88 574.48 1055.07 574.27 1056.47 575.68 C 1057.18 577.04 1057.24 578.45 1057.31 579.95 C 1057.42 592.59 1057.09 605.25 1057.47 617.88 C 1066.91 618.82 1076.52 618.10 1086.00 618.32 C 1090.73 618.12 1095.86 618.89 1100.46 617.80 C 1101.19 616.26 1101.23 614.66 1101.27 613.00 C 1101.28 600.88 1101.12 588.76 1101.34 576.64 C 1101.94 575.96 1102.54 575.28 1103.15 574.60 C 1109.41 574.21 1115.72 574.41 1122.00 574.34 C 1124.68 574.29 1127.01 574.65 1129.55 575.45 C 1130.63 581.65 1130.20 587.75 1130.26 594.00 C 1130.27 623.66 1130.24 653.33 1130.27 682.99 C 1130.24 685.50 1129.84 687.94 1129.41 690.40 C 1122.98 691.87 1116.88 691.07 1110.00 691.30 C 1107.60 691.21 1104.59 691.62 1102.48 690.34 C 1100.93 689.23 1101.36 686.70 1101.21 685.02 C 1101.26 674.35 1101.22 663.68 1101.26 653.00 C 1101.28 650.40 1101.00 647.82 1100.64 645.25 C 1086.28 645.14 1071.88 645.04 1057.53 645.30 C 1057.00 658.52 1057.49 671.78 1057.28 685.00 C 1057.21 686.86 1056.92 688.68 1056.62 690.51 C 1049.93 691.81 1042.97 691.09 1036.01 691.30 C 1033.44 691.17 1030.24 691.74 1028.75 689.08 C 1028.08 686.17 1028.42 682.97 1028.35 680.00 C 1028.39 650.00 1028.36 620.00 1028.36 590.00 C 1028.39 585.45 1028.23 580.85 1028.55 576.31 C 1029.93 575.14 1031.06 574.41 1032.95 574.43 Z" fill="#273b46" />
<path d="M 142.53 601.56 C 148.09 600.84 153.85 601.30 159.45 601.35 C 169.69 601.54 180.85 605.54 186.95 614.17 C 192.85 622.76 193.57 634.55 190.36 644.27 C 187.94 651.96 182.04 657.97 174.62 661.01 C 164.48 665.25 153.17 664.41 142.40 664.32 C 141.87 648.57 142.31 632.76 142.17 617.00 C 142.30 611.89 141.79 606.62 142.53 601.56 Z" fill="#ffffff" />
<path d="M 300.01 601.37 C 305.15 601.55 311.59 602.95 314.48 607.68 C 316.33 610.97 316.16 615.54 315.31 619.13 C 313.61 624.52 308.21 626.87 303.01 627.53 C 295.66 628.40 288.00 628.37 280.64 627.71 C 280.49 619.01 280.29 610.24 280.72 601.55 C 287.11 600.92 293.60 601.24 300.01 601.37 Z" fill="#ffffff" />
<path d="M 703.03 601.45 C 707.79 601.76 713.56 603.42 716.66 607.30 C 719.83 611.34 720.11 617.66 718.65 622.41 C 716.82 628.42 710.97 631.38 705.17 632.36 C 698.07 633.38 690.74 633.42 683.61 632.69 C 683.43 622.31 683.36 611.85 683.66 601.47 C 690.10 601.06 696.58 601.16 703.03 601.45 Z" fill="#ffffff" />
</svg>