<svg width="2386" height="723" xmlns="http://www.w3.org/2000/svg" xmlns:xlink="http://www.w3.org/1999/xlink" xml:space="preserve" overflow="hidden"><g transform="translate(36 -27)"><text fill="#D9D9D9" font-family="Montserrat,Montserrat_MSFontService,sans-serif" font-weight="700" font-size="147" transform="matrix(1 0 0 1 137.097 212)">Como a  </text><path d="M577.298 482.636 1233.86 482.636 1233.86 661.636 577.298 661.636Z" fill="#FFC000" fill-rule="evenodd"/><text fill="#D9D9D9" font-family="Montserrat,Montserrat_MSFontService,sans-serif" font-weight="700" font-size="147" transform="matrix(1 0 0 1 144.173 626)">pode</text><path d="M1122.19 592.561C1112.78 592.561 1108.08 595.648 1108.08 601.822 1108.08 604.762 1109.23 607.089 1111.54 608.804 1113.84 610.519 1117 611.377 1121.02 611.377 1124.94 611.377 1128.42 610.47 1131.45 608.657 1134.49 606.844 1136.65 604.174 1137.92 600.646L1137.92 592.561ZM905.514 564.19C899.634 564.19 894.783 566.174 890.961 570.143 887.139 574.112 885.228 579.429 885.228 586.093 885.228 592.757 887.139 598.073 890.961 602.042 894.783 606.011 899.634 607.996 905.514 607.996 911.394 607.996 916.22 606.011 919.994 602.042 923.766 598.073 925.653 592.757 925.653 586.093 925.653 579.429 923.766 574.112 919.994 570.143 916.22 566.174 911.394 564.19 905.514 564.19ZM809.659 564.19C803.779 564.19 798.953 566.174 795.18 570.143 791.406 574.112 789.52 579.429 789.52 586.093 789.52 592.757 791.406 598.073 795.18 602.042 798.953 606.011 803.779 607.996 809.659 607.996 815.539 607.996 820.366 606.011 824.139 602.042 827.912 598.073 829.798 592.757 829.798 586.093 829.798 579.429 827.912 574.112 824.139 570.143 820.366 566.174 815.539 564.19 809.659 564.19ZM665.441 546.55 688.373 546.55 688.373 587.857C688.373 600.597 693.714 606.967 704.396 606.967 709.884 606.967 714.294 605.178 717.626 601.601 720.958 598.024 722.624 592.708 722.624 585.652L722.624 546.55 745.556 546.55 745.556 625.636 723.8 625.636 723.8 616.228C720.762 619.658 717.136 622.279 712.922 624.092 708.708 625.905 704.151 626.812 699.251 626.812 688.863 626.812 680.631 623.823 674.555 617.845 668.479 611.867 665.441 602.998 665.441 591.238ZM1230.98 545.374 1230.98 566.542C1228.43 566.346 1226.72 566.248 1225.83 566.248 1219.27 566.248 1214.12 568.085 1210.4 571.76 1206.68 575.435 1204.81 580.948 1204.81 588.298L1204.81 625.636 1181.88 625.636 1181.88 546.55 1203.78 546.55 1203.78 556.987C1206.53 553.165 1210.23 550.274 1214.88 548.314 1219.54 546.354 1224.9 545.374 1230.98 545.374ZM1122.78 545.374C1135.03 545.374 1144.44 548.289 1151.01 554.12 1157.57 559.951 1160.85 568.747 1160.85 580.507L1160.85 625.636 1139.39 625.636 1139.39 615.787C1135.08 623.137 1127.04 626.812 1115.28 626.812 1109.21 626.812 1103.94 625.783 1099.48 623.725 1095.02 621.667 1091.62 618.825 1089.27 615.199 1086.91 611.573 1085.74 607.457 1085.74 602.851 1085.74 595.501 1088.51 589.719 1094.04 585.505 1099.58 581.291 1108.13 579.184 1119.69 579.184L1137.92 579.184C1137.92 574.186 1136.4 570.339 1133.36 567.644 1130.33 564.949 1125.77 563.602 1119.69 563.602 1115.48 563.602 1111.34 564.263 1107.27 565.586 1103.21 566.909 1099.75 568.698 1096.91 570.952L1088.68 554.929C1092.99 551.891 1098.16 549.539 1104.19 547.873 1110.21 546.207 1116.41 545.374 1122.78 545.374ZM1012.98 545.374 1012.98 566.542C1010.43 566.346 1008.72 566.248 1007.84 566.248 1001.27 566.248 996.124 568.085 992.4 571.76 988.676 575.435 986.814 580.948 986.814 588.298L986.814 625.636 963.882 625.636 963.882 546.55 985.785 546.55 985.785 556.987C988.529 553.165 992.229 550.274 996.884 548.314 1001.54 546.354 1006.9 545.374 1012.98 545.374ZM905.514 545.374C913.844 545.374 921.292 547.113 927.858 550.592 934.424 554.071 939.569 558.898 943.293 565.072 947.017 571.246 948.879 578.253 948.879 586.093 948.879 593.933 947.017 600.94 943.293 607.114 939.569 613.288 934.424 618.114 927.858 621.593 921.292 625.072 913.844 626.812 905.514 626.812 897.184 626.812 889.712 625.072 883.097 621.593 876.482 618.114 871.312 613.288 867.588 607.114 863.864 600.94 862.002 593.933 862.002 586.093 862.002 578.253 863.864 571.246 867.588 565.072 871.312 558.898 876.482 554.071 883.097 550.592 889.712 547.113 897.184 545.374 905.514 545.374ZM813.628 545.374C820.978 545.374 827.667 547.064 833.693 550.445 839.721 553.826 844.449 558.579 847.879 564.704 851.309 570.829 853.024 577.959 853.024 586.093 853.024 594.227 851.309 601.356 847.879 607.481 844.449 613.606 839.721 618.359 833.693 621.74 827.667 625.121 820.978 626.812 813.628 626.812 803.534 626.812 795.596 623.627 789.814 617.257L789.814 654.154 766.882 654.154 766.882 546.55 788.785 546.55 788.785 555.664C794.469 548.804 802.75 545.374 813.628 545.374ZM618.752 545.374C624.338 545.374 629.9 545.986 635.437 547.211 640.974 548.436 645.555 550.127 649.181 552.283L641.537 568.6C634.579 564.68 626.984 562.72 618.752 562.72 613.852 562.72 610.177 563.406 607.727 564.778 605.277 566.15 604.052 567.914 604.052 570.07 604.052 572.52 605.375 574.235 608.021 575.215 610.667 576.195 614.881 577.126 620.663 578.008 627.131 579.086 632.423 580.237 636.539 581.462 640.655 582.687 644.232 584.917 647.27 588.151 650.308 591.385 651.827 595.893 651.827 601.675 651.827 606.575 650.357 610.936 647.417 614.758 644.477 618.58 640.19 621.544 634.555 623.651 628.92 625.758 622.231 626.812 614.489 626.812 607.923 626.812 601.504 626.003 595.232 624.386 588.96 622.769 583.962 620.736 580.238 618.286L587.882 601.822C591.41 604.076 595.673 605.913 600.671 607.334 605.669 608.755 610.569 609.466 615.371 609.466 625.073 609.466 629.924 607.065 629.924 602.263 629.924 600.009 628.601 598.392 625.955 597.412 623.309 596.432 619.242 595.599 613.754 594.913 607.286 593.933 601.945 592.806 597.731 591.532 593.517 590.258 589.867 588.004 586.78 584.77 583.693 581.536 582.149 576.93 582.149 570.952 582.149 565.954 583.595 561.519 586.486 557.648 589.377 553.777 593.591 550.764 599.128 548.608 604.665 546.452 611.206 545.374 618.752 545.374ZM1029.68 529.057 1052.61 529.057 1052.61 548.314 1072.3 548.314 1072.3 565.954 1052.61 565.954 1052.61 598.147C1052.61 601.479 1053.46 604.051 1055.18 605.864 1056.89 607.677 1059.32 608.584 1062.46 608.584 1066.08 608.584 1069.17 607.604 1071.72 605.644L1077.89 621.814C1075.64 623.48 1072.87 624.729 1069.59 625.562 1066.3 626.395 1062.85 626.812 1059.22 626.812 1049.81 626.812 1042.54 624.411 1037.39 619.609 1032.25 614.807 1029.68 607.751 1029.68 598.441L1029.68 565.954 1017.47 565.954 1017.47 548.314 1029.68 548.314Z" stroke="#FFFFFF" stroke-width="4" stroke-linejoin="round" stroke-miterlimit="10" fill="#F2F2F2" fill-rule="evenodd"/><text fill="#000000" fill-opacity="0" font-family="Arial,Arial_MSFontService,sans-serif" font-size="125.097" x="580.238" y="638.516">suportar</text><text fill="#D9D9D9" font-family="Montserrat,Montserrat_MSFontService,sans-serif" font-weight="700" font-size="147" transform="matrix(1 0 0 1 1275.11 626)">seu projeto...</text><text fill="#FFC000" font-family="Montserrat,Montserrat_MSFontService,sans-serif" font-weight="700" font-size="275" transform="matrix(1 0 0 1 129.942 442)">DRILLPUSH</text></g></svg>