<svg width="2337" height="723" xmlns="http://www.w3.org/2000/svg" xmlns:xlink="http://www.w3.org/1999/xlink" xml:space="preserve" overflow="hidden"><g transform="translate(36 -27)"><text fill="#D9D9D9" font-family="Montserrat,Montserrat_MSFontService,sans-serif" font-weight="700" font-size="147" transform="matrix(1 0 0 1 185.595 212)">How</text><path d="M513.418 482.636 1117.84 482.636 1117.84 661.636 513.418 661.636Z" fill="#FFC000" fill-rule="evenodd"/><text fill="#D9D9D9" font-family="Montserrat,Montserrat_MSFontService,sans-serif" font-weight="700" font-size="147" transform="matrix(1 0 0 1 193.73 626)">can</text><path d="M943.634 564.19C937.754 564.19 932.903 566.174 929.081 570.143 925.259 574.112 923.348 579.429 923.348 586.093 923.348 592.757 925.259 598.073 929.081 602.042 932.903 606.011 937.754 607.996 943.634 607.996 949.514 607.996 954.34 606.011 958.113 602.042 961.886 598.073 963.773 592.757 963.773 586.093 963.773 579.429 961.886 574.112 958.113 570.143 954.34 566.174 949.514 564.19 943.634 564.19ZM846.779 564.19C840.899 564.19 836.072 566.174 832.299 570.143 828.526 574.112 826.64 579.429 826.64 586.093 826.64 592.757 828.526 598.073 832.299 602.042 836.072 606.011 840.899 607.996 846.779 607.996 852.659 607.996 857.485 606.011 861.258 602.042 865.031 598.073 866.918 592.757 866.918 586.093 866.918 579.429 865.031 574.112 861.258 570.143 857.485 566.174 852.659 564.19 846.779 564.19ZM745.779 564.19C739.899 564.19 735.072 566.174 731.299 570.143 727.526 574.112 725.64 579.429 725.64 586.093 725.64 592.757 727.526 598.073 731.299 602.042 735.072 606.011 739.899 607.996 745.779 607.996 751.659 607.996 756.485 606.011 760.258 602.042 764.031 598.073 765.918 592.757 765.918 586.093 765.918 579.429 764.031 574.112 760.258 570.143 756.485 566.174 751.659 564.19 745.779 564.19ZM601.561 546.55 624.493 546.55 624.493 587.857C624.493 600.597 629.834 606.967 640.516 606.967 646.004 606.967 650.414 605.178 653.746 601.601 657.078 598.024 658.744 592.708 658.744 585.652L658.744 546.55 681.676 546.55 681.676 625.636 659.92 625.636 659.92 616.228C656.882 619.658 653.256 622.279 649.042 624.092 644.828 625.905 640.271 626.812 635.371 626.812 624.983 626.812 616.751 623.823 610.675 617.845 604.599 611.867 601.561 602.998 601.561 591.238ZM1051.1 545.374 1051.1 566.542C1048.55 566.346 1046.84 566.248 1045.95 566.248 1039.39 566.248 1034.24 568.085 1030.52 571.76 1026.8 575.435 1024.93 580.948 1024.93 588.298L1024.93 625.636 1002 625.636 1002 546.55 1023.9 546.55 1023.9 556.987C1026.65 553.165 1030.35 550.274 1035 548.314 1039.66 546.354 1045.02 545.374 1051.1 545.374ZM943.634 545.374C951.964 545.374 959.412 547.113 965.978 550.592 972.544 554.071 977.689 558.898 981.413 565.072 985.137 571.246 986.999 578.253 986.999 586.093 986.999 593.933 985.137 600.94 981.413 607.114 977.689 613.288 972.544 618.114 965.978 621.593 959.412 625.072 951.964 626.812 943.634 626.812 935.304 626.812 927.831 625.072 921.216 621.593 914.601 618.114 909.432 613.288 905.708 607.114 901.984 600.94 900.122 593.933 900.122 586.093 900.122 578.253 901.984 571.246 905.708 565.072 909.432 558.898 914.601 554.071 921.216 550.592 927.831 547.113 935.304 545.374 943.634 545.374ZM850.748 545.374C858.098 545.374 864.786 547.064 870.813 550.445 876.84 553.826 881.569 558.579 884.999 564.704 888.429 570.829 890.144 577.959 890.144 586.093 890.144 594.227 888.429 601.356 884.999 607.481 881.569 613.606 876.84 618.359 870.813 621.74 864.786 625.121 858.098 626.812 850.748 626.812 840.654 626.812 832.716 623.627 826.934 617.257L826.934 654.154 804.002 654.154 804.002 546.55 825.905 546.55 825.905 555.664C831.589 548.804 839.87 545.374 850.748 545.374ZM749.748 545.374C757.098 545.374 763.786 547.064 769.813 550.445 775.84 553.826 780.569 558.579 783.999 564.704 787.429 570.829 789.144 577.959 789.144 586.093 789.144 594.227 787.429 601.356 783.999 607.481 780.569 613.606 775.84 618.359 769.813 621.74 763.786 625.121 757.098 626.812 749.748 626.812 739.654 626.812 731.716 623.627 725.934 617.257L725.934 654.154 703.002 654.154 703.002 546.55 724.905 546.55 724.905 555.664C730.589 548.804 738.87 545.374 749.748 545.374ZM554.872 545.374C560.458 545.374 566.019 545.986 571.556 547.211 577.093 548.436 581.675 550.127 585.301 552.283L577.657 568.6C570.699 564.68 563.104 562.72 554.872 562.72 549.972 562.72 546.297 563.406 543.847 564.778 541.397 566.15 540.172 567.914 540.172 570.07 540.172 572.52 541.495 574.235 544.141 575.215 546.787 576.195 551.001 577.126 556.783 578.008 563.251 579.086 568.543 580.237 572.659 581.462 576.775 582.687 580.352 584.917 583.39 588.151 586.428 591.385 587.947 595.893 587.947 601.675 587.947 606.575 586.477 610.936 583.537 614.758 580.597 618.58 576.309 621.544 570.674 623.651 565.039 625.758 558.351 626.812 550.609 626.812 544.043 626.812 537.624 626.003 531.352 624.386 525.08 622.769 520.082 620.736 516.358 618.286L524.002 601.822C527.53 604.076 531.793 605.913 536.791 607.334 541.789 608.755 546.689 609.466 551.491 609.466 561.193 609.466 566.044 607.065 566.044 602.263 566.044 600.009 564.721 598.392 562.075 597.412 559.429 596.432 555.362 595.599 549.874 594.913 543.406 593.933 538.065 592.806 533.851 591.532 529.637 590.258 525.986 588.004 522.899 584.77 519.812 581.536 518.269 576.93 518.269 570.952 518.269 565.954 519.714 561.519 522.605 557.648 525.496 553.777 529.71 550.764 535.247 548.608 540.784 546.452 547.326 545.374 554.872 545.374ZM1067.79 529.057 1090.73 529.057 1090.73 548.314 1110.42 548.314 1110.42 565.954 1090.73 565.954 1090.73 598.147C1090.73 601.479 1091.58 604.051 1093.3 605.864 1095.01 607.677 1097.44 608.584 1100.58 608.584 1104.2 608.584 1107.29 607.604 1109.84 605.644L1116.01 621.814C1113.76 623.48 1110.99 624.729 1107.71 625.562 1104.42 626.395 1100.97 626.812 1097.34 626.812 1087.93 626.812 1080.66 624.411 1075.51 619.609 1070.37 614.807 1067.79 607.751 1067.79 598.441L1067.79 565.954 1055.59 565.954 1055.59 548.314 1067.79 548.314Z" stroke="#FFFFFF" stroke-width="4" stroke-linejoin="round" stroke-miterlimit="10" fill="#F2F2F2" fill-rule="evenodd"/><text fill="#000000" fill-opacity="0" font-family="Arial,Arial_MSFontService,sans-serif" font-size="125.097" x="516.358" y="638.516">support</text><text fill="#D9D9D9" font-family="Montserrat,Montserrat_MSFontService,sans-serif" font-weight="700" font-size="147" transform="matrix(1 0 0 1 1159.09 626)">your</text><text fill="#D9D9D9" font-family="Montserrat,Montserrat_MSFontService,sans-serif" font-weight="700" font-size="147" transform="matrix(1 0 0 1 1548.11 626)">project</text><text fill="#FFC000" font-family="Montserrat,Montserrat_MSFontService,sans-serif" font-weight="700" font-size="275" transform="matrix(1 0 0 1 129.942 442)">DRILLPUSH</text></g></svg>